<mxfile host="app.diagrams.net" modified="2023-03-29T12:06:57.976Z" agent="Mozilla/5.0 (Windows NT 10.0; Win64; x64) AppleWebKit/537.36 (KHTML, like Gecko) Chrome/110.0.0.0 Safari/537.36 OPR/96.0.0.0" version="21.1.1" etag="WZUN6iaqC4SeSbRSB1Ac" type="github">
  <diagram name="PÃ¡gina-1" id="h1Fdloh0jwgs_RXupp5e">
    <mxGraphModel>
      <root>
        <mxCell id="0" />
        <mxCell id="1" parent="0" />
      </root>
    </mxGraphModel>
  </diagram>
</mxfile>
